<?xml version="1.0" encoding="utf-8"?>
<!-- Generator: Adobe Illustrator 21.1.0, SVG Export Plug-In . SVG Version: 6.00 Build 0)  -->
<svg version="1.1" id="Layer_1" xmlns="http://www.w3.org/2000/svg" xmlns:xlink="http://www.w3.org/1999/xlink" x="0px" y="0px"
	 viewBox="0 0 121 91" style="enable-background:new 0 0 121 91;" xml:space="preserve">
<style type="text/css">
	.st0{fill:#FFFFFF;}
	.st1{fill:#0BADBA;}
	.st2{fill:#010101;}
</style>
<rect class="st1" width="121" height="91"/>
<g>
	<circle class="st0" cx="100.1" cy="35" r="2.1"/>
	<polygon class="st0" points="14.6,34.7 29.8,25 39.7,22.4 50.3,20.9 64.7,23.4 	"/>
	<polygon class="st0" points="109.4,43.5 107.7,47.7 97.7,51.7 89.5,52.5 89.5,52.5 85.4,41.7 95.3,45.9 101.1,45.1 	"/>
	<polygon class="st0" points="21.4,61.7 22.1,65.2 15.8,65.2 11.6,58.2 16.5,52.6 24.9,52.6 31.2,61 28.4,70.1 24.2,67.3 26.3,61 
		22.1,56.8 17.2,56.8 16.5,60.3 	"/>
	<path class="st0" d="M99.1,28.4c-3.6,0-6.5,2.9-6.5,6.5s2.9,6.5,6.5,6.5s6.5-2.9,6.5-6.5S102.7,28.4,99.1,28.4z M99.1,39.9
		c-2.7,0-4.9-2.2-4.9-4.9s2.2-4.9,4.9-4.9s4.9,2.2,4.9,4.9S101.8,39.9,99.1,39.9z"/>
	<polygon class="st0" points="70.8,65.2 79.5,67.8 73.3,55.7 	"/>
</g>
</svg>
