<?xml version="1.0" encoding="utf-8"?>
<!-- Generator: Adobe Illustrator 21.1.0, SVG Export Plug-In . SVG Version: 6.00 Build 0)  -->
<svg version="1.1" id="Layer_1" xmlns="http://www.w3.org/2000/svg" xmlns:xlink="http://www.w3.org/1999/xlink" x="0px" y="0px"
	 viewBox="0 0 100 100" style="enable-background:new 0 0 100 100;" xml:space="preserve">
<style type="text/css">
	.st0{fill:#EDEDED;}
	.st1{opacity:0.85;fill:none;stroke:#F04559;stroke-width:5;stroke-miterlimit:10;}
</style>
<path class="st0" d="M50,30c-11,0-20,9-20,20s9,20,20,20s20-9,20-20S61,30,50,30z M49.6,56.1c0.1,0,0.3-0.1,0.5-0.2
	c0.2-0.1,0.5-0.3,0.7-0.4c0.3-0.2,0.5-0.4,0.8-0.6c0.3-0.2,0.5-0.4,0.6-0.6c0.2,0,0.3,0.1,0.4,0.2c0.1,0.1,0.2,0.3,0.1,0.5
	c-0.3,0.4-0.6,0.8-1.1,1.2c-0.4,0.4-0.9,0.7-1.4,1.1c-0.5,0.3-1.1,0.6-1.7,0.8c-0.6,0.2-1.2,0.3-1.7,0.3c-0.2,0-0.4,0-0.5-0.1
	c-0.2-0.1-0.3-0.2-0.4-0.3c-0.1-0.1-0.2-0.2-0.3-0.4c-0.1-0.1-0.1-0.2-0.1-0.3c0-0.2,0-0.3,0.1-0.5c0.1-0.2,0.1-0.4,0.3-0.7l2.9-7
	c0.1-0.3,0.1-0.4-0.1-0.4c-0.1,0-0.3,0.1-0.5,0.2c-0.2,0.1-0.5,0.3-0.7,0.4c-0.3,0.2-0.5,0.3-0.7,0.5c-0.2,0.2-0.4,0.3-0.5,0.4
	c-0.2,0-0.3-0.1-0.4-0.3c-0.1-0.1-0.1-0.3-0.1-0.4c0.4-0.5,0.8-0.9,1.3-1.3c0.5-0.4,1-0.7,1.5-1c0.5-0.3,1-0.5,1.5-0.7
	c0.5-0.2,0.9-0.2,1.3-0.2c0.3,0,0.6,0.1,0.9,0.4c0.3,0.3,0.4,0.5,0.4,0.9c0,0.2,0,0.3-0.1,0.6c-0.1,0.2-0.2,0.5-0.3,0.7l-2.9,6.9
	C49.4,56,49.4,56.1,49.6,56.1z M53.8,42.8c-0.4,0.5-1,0.7-1.6,0.7c-0.5,0-1-0.2-1.3-0.5c-0.3-0.3-0.5-0.7-0.5-1.2
	c0-0.3,0.1-0.6,0.2-0.9c0.1-0.3,0.3-0.6,0.5-0.8c0.2-0.2,0.5-0.4,0.7-0.5c0.3-0.1,0.6-0.2,0.9-0.2c0.5,0,0.9,0.2,1.2,0.5
	s0.5,0.7,0.5,1.3C54.4,41.7,54.2,42.3,53.8,42.8z"/>
</svg>
