<?xml version="1.0" encoding="utf-8"?>
<!-- Generator: Adobe Illustrator 21.1.0, SVG Export Plug-In . SVG Version: 6.00 Build 0)  -->
<svg version="1.1" id="Layer_1" xmlns="http://www.w3.org/2000/svg" xmlns:xlink="http://www.w3.org/1999/xlink" x="0px" y="0px"
	 viewBox="0 0 100 100" style="enable-background:new 0 0 100 100;" xml:space="preserve">
<style type="text/css">
	.st0{fill:#FFFFFF;}
</style>
<path class="st0" d="M57.7,28.4c-0.7-0.5-1.6-0.7-2.4-0.3l-21.9,8.5l-13-0.2c-2.5,0-4.5,2.1-4.6,4.8l-0.3,16.9
	c0,2.5,1.8,4.6,4.1,4.6l13.3,0.2l21.7,9c0.3,0.1,0.6,0.2,0.9,0.2c0.5,0,1-0.2,1.5-0.5c0.7-0.5,1.1-1.2,1.1-2.1l0.6-39
	C58.7,29.7,58.3,28.9,57.7,28.4z"/>
<path class="st0" d="M76.2,63.4l3.6,2.4c3.4-4.3,5.4-9.8,5.4-15.6c0-6.6-2.2-11.9-5.6-15.9L76,36.6c3.3,3.8,4.9,8.7,4.9,13.5
	C80.9,55.1,79.2,59.8,76.2,63.4z"/>
<path class="st0" d="M66.6,57.9c0,0.1-0.1,0.1-0.2,0.2l3.6,2.4c2.3-2.8,3.6-6.4,3.6-10.3c0-3.8-1.3-7.7-3.8-10.6l-3.6,2.4
	c2.1,2.2,3.2,5.2,3.2,8.2C69.4,53.1,68.4,55.9,66.6,57.9z"/>
</svg>
