<?xml version="1.0" encoding="utf-8"?>
<!-- Generator: Adobe Illustrator 21.1.0, SVG Export Plug-In . SVG Version: 6.00 Build 0)  -->
<svg version="1.1" id="Layer_1" xmlns="http://www.w3.org/2000/svg" xmlns:xlink="http://www.w3.org/1999/xlink" x="0px" y="0px"
	 viewBox="0 0 100 100" style="enable-background:new 0 0 100 100;" xml:space="preserve">
<style type="text/css">
	.st0{fill:#EDEDED;}
	.st1{opacity:0.85;fill:none;stroke:#F04559;stroke-width:5;stroke-miterlimit:10;}
	.st2{fill:#F04559;}
</style>
<path class="st2" d="M50,25.3c-13.6,0-24.8,11.1-24.8,24.7S36.4,74.7,50,74.7S74.8,63.6,74.8,50S63.6,25.3,50,25.3z M50,31.5
	c3.6,0,6.9,1,9.8,2.8L34.3,59.8c-1.8-2.8-2.8-6.2-2.8-9.8C31.5,39.8,39.8,31.5,50,31.5z M50,68.5c-4.4,0-8.3-1.5-11.5-4l26-26
	c2.5,3.2,4,7.2,4,11.5C68.5,60.2,60.2,68.5,50,68.5z"/>
</svg>
