<?xml version="1.0" encoding="utf-8"?>
<!-- Generator: Adobe Illustrator 21.1.0, SVG Export Plug-In . SVG Version: 6.00 Build 0)  -->
<svg version="1.1" id="Layer_1" xmlns="http://www.w3.org/2000/svg" xmlns:xlink="http://www.w3.org/1999/xlink" x="0px" y="0px"
	 viewBox="0 0 100 100" style="enable-background:new 0 0 100 100;" xml:space="preserve">
<style type="text/css">
	.st0{fill:#EDEDED;}
	.st1{opacity:0.85;fill:none;stroke:#F04559;stroke-width:5;stroke-miterlimit:10;}
	.st2{fill:#F04559;}
</style>
<path class="st0" d="M70.6,28.4c-0.7-0.5-1.6-0.7-2.4-0.3l-21.9,8.5l-13-0.2c-2.5,0-4.5,2.1-4.6,4.8l-0.3,16.9
	c0,2.5,1.8,4.6,4.1,4.6l13.3,0.2l21.7,9c0.3,0.1,0.6,0.2,0.9,0.2c0.5,0,1-0.2,1.5-0.5c0.7-0.5,1.1-1.2,1.1-2.1l0.6-39
	C71.6,29.7,71.2,28.9,70.6,28.4z"/>
<line class="st1" x1="81.6" y1="18.4" x2="18.4" y2="81.6"/>
</svg>
