<?xml version="1.0" encoding="utf-8"?>
<!-- Generator: Adobe Illustrator 21.1.0, SVG Export Plug-In . SVG Version: 6.00 Build 0)  -->
<svg version="1.1" id="Layer_1" xmlns="http://www.w3.org/2000/svg" xmlns:xlink="http://www.w3.org/1999/xlink" x="0px" y="0px"
	 viewBox="0 0 100 100" style="enable-background:new 0 0 100 100;" xml:space="preserve">
<style type="text/css">
	.st0{fill:#EDEDED;}
	.st1{opacity:0.85;fill:none;stroke:#F04559;stroke-width:5;stroke-miterlimit:10;}
</style>
<g>
	<path class="st0" d="M67.3,55.1c-0.1,0.2-0.2,0.3-0.4,0.5l1.1,0.7c0.1-0.2,0.3-0.3,0.4-0.5c0.7-1.1,1.1-2.6,1.1-4.2
		c0-1.8-0.6-3.7-1.7-4.9l-1.2,0.8c1,0.9,1.5,2.6,1.5,4.1C68.2,53,67.9,54.2,67.3,55.1z"/>
	<path class="st0" d="M72.2,59.1l1.1,0.7c1.6-2.3,2.5-5.1,2.5-8.1c0-2.9-0.9-6-2.7-8.4L72,44c1.6,2.2,2.5,5,2.5,7.7
		C74.4,54.4,73.7,57,72.2,59.1z"/>
	<path class="st0" d="M79,39.4l-1.2,0.8c2.2,3.5,3.3,7.5,3.3,11.5c0,4.1-1.1,8-3.1,11.2l1.1,0.7c2.2-3.5,3.4-7.6,3.4-12
		C82.5,47.4,81.3,43.1,79,39.4z"/>
	<path class="st0" d="M60.4,29.4c-0.7-0.5-1.6-0.6-2.5-0.3l-22.4,8.4H22.1c-2.6,0-4.6,2.1-4.6,4.6v16.1c0,2.4,1.9,4.3,4.3,4.3h13.7
		L58,70.9c0.3,0.1,0.6,0.2,0.9,0.2c0.5,0,1.1-0.2,1.5-0.5c0.7-0.5,1.1-1.2,1.1-2V31.4C61.5,30.6,61.1,29.8,60.4,29.4z M41.4,62.9
		l-5.6-2.1c-0.1,0-0.1-0.1-0.2-0.1V39.5c0.1-0.1,0.2-0.2,0.3-0.2l5.4-2V62.9z M59.7,68.6c0,0.3-0.2,0.4-0.3,0.5
		c-0.2,0.2-0.5,0.2-0.8,0.1l-15.4-5.7v-27l15.4-5.8c0.3-0.1,0.6-0.1,0.8,0.1c0.1,0.1,0.3,0.2,0.3,0.5V68.6z"/>
</g>
</svg>
