<?xml version="1.0" encoding="utf-8"?>
<!-- Generator: Adobe Illustrator 21.1.0, SVG Export Plug-In . SVG Version: 6.00 Build 0)  -->
<svg version="1.1" id="Layer_1" xmlns="http://www.w3.org/2000/svg" xmlns:xlink="http://www.w3.org/1999/xlink" x="0px" y="0px"
	 viewBox="0 0 100 100" style="enable-background:new 0 0 100 100;" xml:space="preserve">
<style type="text/css">
	.st0{fill:#EDEDED;}
	.st1{opacity:0.85;fill:none;stroke:#F04559;stroke-width:5;stroke-miterlimit:10;}
</style>
<g>
	<path class="st0" d="M80.4,38.3l-15.1,6.8c-0.1,0.1-0.3,0.1-0.4,0.2l0-10.3c0-1.9-1.6-3.5-3.5-3.5L21,31.7c-1.9,0-3.5,1.6-3.5,3.5
		l0.1,29.7c0,1.9,1.6,3.5,3.5,3.5l40.4-0.1c1.9,0,3.5-1.6,3.5-3.5l0-9.3c0.1,0.1,0.2,0.2,0.4,0.2l15.1,6c1,0.4,2-0.5,2-1.6V39.9
		C82.5,38.7,81.4,37.9,80.4,38.3z M59.9,66.7l-37.2,0.1c-1.9,0-3.5-1.6-3.5-3.5l-0.1-26.6c0-1.9,1.6-3.5,3.5-3.5l37.2-0.1
		c1.9,0,3.5,1.6,3.5,3.5l0.1,26.6C63.4,65.1,61.8,66.7,59.9,66.7z"/>
	<circle class="st0" cx="48.1" cy="50" r="3.8"/>
	<path class="st0" d="M32.9,43.2c-3.8,0-6.8,3.1-6.8,6.8c0,3.8,3.1,6.8,6.8,6.8c3.8,0,6.8-3.1,6.8-6.8
		C39.8,46.2,36.7,43.2,32.9,43.2z M32.9,54.1c-2.3,0-4.1-1.8-4.1-4.1s1.8-4.1,4.1-4.1c2.3,0,4.1,1.8,4.1,4.1S35.2,54.1,32.9,54.1z"
		/>
</g>
</svg>
