<?xml version="1.0" encoding="utf-8"?>
<!-- Generator: Adobe Illustrator 21.1.0, SVG Export Plug-In . SVG Version: 6.00 Build 0)  -->
<svg version="1.1" id="Layer_1" xmlns="http://www.w3.org/2000/svg" xmlns:xlink="http://www.w3.org/1999/xlink" x="0px" y="0px"
	 viewBox="0 0 100 100" style="enable-background:new 0 0 100 100;" xml:space="preserve">
<style type="text/css">
	.st0{fill:#EDEDED;}
	.st1{opacity:0.85;fill:none;stroke:#F04559;stroke-width:5;stroke-miterlimit:10;}
</style>
<path class="st0" d="M82.5,39.8c0-0.1,0-0.2,0-0.2c-0.1-0.8-0.6-1.5-1.4-1.8L50.7,24.9c-0.7-0.3-1.6-0.3-2.4,0L18.8,38.7
	c-0.8,0.3-1.2,1-1.3,1.7c0,0,0,0.1,0,0.1l0,16.8c0,0.2,0.1,0.4,0.3,0.5l30,17.1c0.6,0.3,1.3,0.5,2.1,0.5c0.7,0,1.5-0.2,2.1-0.6
	l30.2-18.1c0.2-0.1,0.3-0.3,0.3-0.4L82.5,39.8z M27.3,39.3l6.1,3.4l6.5-3.2l-6.1-3.4l1.6-0.8l13.1,6.9l-1.7,0.9l-5.2-2.7l-6.3,3.1
	l5.5,2.9l-1.8,1l-13.7-7.2L27.3,39.3z M48.5,73.9L18.8,57l0-14.5l29.7,15.9c0.2,0.1,0.5,0.2,0.7,0.3v15.4C49,74.1,48.7,74,48.5,73.9
	z M51.2,73.9c-0.2,0.1-0.5,0.2-0.7,0.3V58.7c0.3-0.1,0.5-0.1,0.7-0.3l29.9-16.9l0,14.4L51.2,73.9z"/>
</svg>
