<?xml version="1.0" encoding="utf-8"?>
<!-- Generator: Adobe Illustrator 21.1.0, SVG Export Plug-In . SVG Version: 6.00 Build 0)  -->
<svg version="1.1" id="Layer_1" xmlns="http://www.w3.org/2000/svg" xmlns:xlink="http://www.w3.org/1999/xlink" x="0px" y="0px"
	 viewBox="0 0 100 100" style="enable-background:new 0 0 100 100;" xml:space="preserve">
<style type="text/css">
	.st0{fill:#EDEDED;}
	.st1{opacity:0.85;fill:none;stroke:#F04559;stroke-width:5;stroke-miterlimit:10;}
</style>
<g>
	<path class="st0" d="M58.3,82.5v-13h24.2v9.7c0,1.8-1.5,3.2-3.2,3.2H58.3z"/>
	<path class="st0" d="M55.9,82.5H21.3c-2.1,0-3.8-1.6-3.8-3.5v-9.5h38.4V82.5z M18.6,70.5V79c0,1.4,1.2,2.5,2.7,2.5h33.5v-11H18.6z"
		/>
	<path class="st0" d="M82.5,67H70.7V43.2h11.8V67z M71.7,65.9h9.7V44.2h-9.7V65.9z"/>
	<path class="st0" d="M66.7,32V17.5h12.6c1.8,0,3.2,1.5,3.2,3.2V32H66.7z"/>
	<path class="st0" d="M64.1,32H17.5V21c0-1.9,1.7-3.5,3.8-3.5h42.9V32z M18.6,31h44.5V18.5H21.3c-1.5,0-2.7,1.1-2.7,2.5V31z"/>
	<path class="st0" d="M67.9,67H36.3V43.2h31.6V67z M37.3,65.9h29.6V44.2H37.3V65.9z"/>
	
		<rect x="56.4" y="14.7" transform="matrix(-1.836970e-16 1 -1 -1.836970e-16 97.2433 -21.5507)" class="st0" width="6" height="46.2"/>
	<rect x="17.5" y="34.8" class="st0" width="16.3" height="32.2"/>
</g>
</svg>
