<?xml version="1.0" encoding="utf-8"?>
<!-- Generator: Adobe Illustrator 21.1.0, SVG Export Plug-In . SVG Version: 6.00 Build 0)  -->
<svg version="1.1" id="Layer_1" xmlns="http://www.w3.org/2000/svg" xmlns:xlink="http://www.w3.org/1999/xlink" x="0px" y="0px"
	 viewBox="0 0 100 100" style="enable-background:new 0 0 100 100;" xml:space="preserve">
<style type="text/css">
	.st0{fill:#FFFFFF;}
	.st1{fill:#F04559;}
</style>
<path class="st0" d="M80.5,38.3l-15.2,6.8c-0.1,0-0.2,0.1-0.3,0.2v-9.8c0-2.1-1.7-3.8-3.8-3.8h-40c-2.1,0-3.8,1.7-3.8,3.8v28.9
	c0,2.1,1.7,3.8,3.8,3.8h40c2.1,0,3.8-1.7,3.8-3.8v-8.9c0.1,0.1,0.2,0.2,0.4,0.2l15.2,6c1,0.4,2-0.5,2-1.7V39.9
	C82.6,38.7,81.5,37.8,80.5,38.3z"/>
<rect x="3.2" y="47.6" transform="matrix(0.7665 -0.6423 0.6423 0.7665 -22.9859 39.222)" class="st1" width="78.4" height="7.2"/>
</svg>
