<?xml version="1.0" encoding="utf-8"?>
<!-- Generator: Adobe Illustrator 21.1.0, SVG Export Plug-In . SVG Version: 6.00 Build 0)  -->
<svg version="1.1" id="Layer_1" xmlns="http://www.w3.org/2000/svg" xmlns:xlink="http://www.w3.org/1999/xlink" x="0px" y="0px"
	 viewBox="0 0 100 100" style="enable-background:new 0 0 100 100;" xml:space="preserve">
<style type="text/css">
	.st0{fill:#EDEDED;}
	.st1{opacity:0.85;fill:none;stroke:#F04559;stroke-width:5;stroke-miterlimit:10;}
</style>
<g>
	<path class="st0" d="M50,83.7c0,0-0.1,0-0.1,0c-2.5,0-5.1-0.3-7.6-0.9l-0.7-0.2l0.1-0.7c0.3-3.8-1.6-7.5-4.8-9.4
		c-3.3-1.9-7.4-1.7-10.6,0.4l-0.6,0.4l-0.5-0.5c-3.5-3.7-6.1-8.3-7.5-13.1l-0.2-0.7l0.6-0.3c3.5-1.6,5.7-5.1,5.7-8.9
		s-2.2-7.3-5.7-8.9l-0.6-0.3l0.2-0.7c1.5-4.8,4.1-9.4,7.6-13.1l0.5-0.5l0.6,0.4c3.1,2.2,7.3,2.4,10.6,0.5c3.3-1.9,5.2-5.6,4.9-9.4
		l-0.1-0.7l0.7-0.2c2.5-0.6,5-0.8,7.6-0.8c2.5,0,5.1,0.3,7.6,0.9l0.7,0.2L58.3,18c-0.3,3.8,1.6,7.5,4.8,9.4
		c3.3,1.9,7.4,1.7,10.6-0.4l0.6-0.4l0.5,0.5c3.5,3.7,6.1,8.3,7.5,13.1l0.2,0.7l-0.6,0.3c-3.5,1.6-5.7,5.1-5.7,8.9
		c0,3.8,2.2,7.3,5.7,8.9l0.6,0.3L82.2,60c-1.5,4.8-4.1,9.4-7.6,13.1l-0.5,0.5l-0.6-0.4c-3.1-2.2-7.3-2.4-10.6-0.5
		c-3.3,1.9-5.2,5.6-4.9,9.4l0.1,0.7l-0.7,0.2C55,83.5,52.5,83.7,50,83.7z M43.3,81.4c2.2,0.5,4.4,0.7,6.6,0.7c2.2,0,4.4-0.2,6.6-0.7
		c-0.1-4.2,2.1-8.1,5.7-10.2c3.6-2.1,8.1-2,11.7,0.2c3-3.3,5.2-7.2,6.6-11.3c-3.6-2-6-5.9-5.9-10.1c0-4.2,2.4-8.1,6-10
		C79.2,35.9,77,32,74,28.7c-3.6,2.2-8.1,2.2-11.7,0.1c-3.6-2.1-5.8-6.1-5.7-10.2c-2.2-0.5-4.4-0.7-6.6-0.7c0,0-0.1,0-0.1,0
		c-2.2,0-4.3,0.2-6.5,0.7c0.1,4.2-2.1,8.1-5.7,10.2c-3.6,2.1-8.1,2-11.7-0.2c-2.9,3.3-5.2,7.2-6.6,11.3c3.6,2,6,5.9,5.9,10.1
		c0,4.2-2.4,8-6,10C20.8,64.1,23,68,26,71.3c3.6-2.1,8.1-2.2,11.7-0.1C41.3,73.3,43.5,77.3,43.3,81.4z"/>
	<path class="st0" d="M50,34.2c-8.8,0-15.8,7.1-15.8,15.8S41.2,65.8,50,65.8S65.8,58.8,65.8,50S58.8,34.2,50,34.2z M50,60.8
		c-6,0-10.8-4.8-10.8-10.8S44,39.2,50,39.2S60.8,44,60.8,50S56,60.8,50,60.8z"/>
	<path class="st0" d="M50,70.2c-11.2,0-20.2-9.1-20.2-20.2c0-11.2,9.1-20.2,20.2-20.2S70.2,38.8,70.2,50
		C70.2,61.2,61.2,70.2,50,70.2z M50,31.4c-10.3,0-18.6,8.4-18.6,18.6S39.7,68.6,50,68.6S68.6,60.3,68.6,50S60.3,31.4,50,31.4z"/>
</g>
</svg>
