<?xml version="1.0" encoding="utf-8"?>
<!-- Generator: Adobe Illustrator 21.1.0, SVG Export Plug-In . SVG Version: 6.00 Build 0)  -->
<svg version="1.1" id="Layer_1" xmlns="http://www.w3.org/2000/svg" xmlns:xlink="http://www.w3.org/1999/xlink" x="0px" y="0px"
	 viewBox="0 0 100 100" style="enable-background:new 0 0 100 100;" xml:space="preserve">
<style type="text/css">
	.st0{fill:#EDEDED;}
	.st1{opacity:0.85;fill:none;stroke:#F04559;stroke-width:5;stroke-miterlimit:10;}
</style>
<g>
	<path class="st0" d="M69,53.9c-1.2,0-2.2,0.5-2.9,1.3l-9.5-7.1c0.3-0.5,0.5-1.2,0.5-1.8c0-0.7-0.2-1.3-0.5-1.8l9.5-7.1
		c0.7,0.8,1.7,1.3,2.9,1.3c2.1,0,3.8-1.7,3.8-3.8S71.1,31,69,31c-2.1,0-3.8,1.7-3.8,3.8c0,0.6,0.1,1.1,0.4,1.6L56,43.6
		c-0.7-0.7-1.6-1.1-2.7-1.1c-2.1,0-3.8,1.7-3.8,3.8c0,2.1,1.7,3.8,3.8,3.8c1.1,0,2-0.4,2.7-1.1l9.5,7.1c-0.2,0.5-0.4,1-0.4,1.6
		c0,2.1,1.7,3.8,3.8,3.8c2.1,0,3.8-1.7,3.8-3.8S71.1,53.9,69,53.9z"/>
	<path class="st0" d="M76.6,21.1H23.4c-3.3,0-5.9,2.7-5.9,5.9v38.4c0,3.3,2.7,5.9,5.9,5.9h18.4L38,78.9H62l-3.7-7.5h18.3
		c3.3,0,5.9-2.7,5.9-5.9V27C82.5,23.8,79.8,21.1,76.6,21.1z M80.8,65.5c0,2.3-1.9,4.2-4.2,4.2H23.4c-2.3,0-4.2-1.9-4.2-4.2V27
		c0-2.3,1.9-4.2,4.2-4.2h53.1c2.3,0,4.2,1.9,4.2,4.2V65.5z"/>
</g>
</svg>
