<?xml version="1.0" encoding="utf-8"?>
<!-- Generator: Adobe Illustrator 21.1.0, SVG Export Plug-In . SVG Version: 6.00 Build 0)  -->
<svg version="1.1" id="Layer_1" xmlns="http://www.w3.org/2000/svg" xmlns:xlink="http://www.w3.org/1999/xlink" x="0px" y="0px"
	 viewBox="0 0 100 100" style="enable-background:new 0 0 100 100;" xml:space="preserve">
<style type="text/css">
	.st0{fill:#FFFFFF;}
</style>
<g>
	<path class="st0" d="M61.2,27.9c-3-1.5-6.3-2.4-9.8-2.6v13.8h12.1C63,35.4,62.2,31.6,61.2,27.9z"/>
	<path class="st0" d="M33.6,41.9h-6.9c-0.9,2.5-1.4,5.2-1.4,8.1c0,2.8,0.5,5.5,1.4,8.1h6.6C32.8,52.8,33,47.4,33.6,41.9z"/>
	<path class="st0" d="M36.7,39.2h11.9V25.3c-3.5,0.2-6.7,1.1-9.6,2.5C38,31.7,37.2,35.4,36.7,39.2z"/>
	<path class="st0" d="M66.3,39.2h6c-1.8-3.6-4.4-6.7-7.6-9.1C65.4,33.1,65.9,36.1,66.3,39.2z"/>
	<path class="st0" d="M66.7,58.1h6.7c0.9-2.5,1.4-5.2,1.4-8.1c0-2.8-0.5-5.5-1.4-8.1h-6.8C67.1,47.2,67.2,52.6,66.7,58.1z"/>
	<path class="st0" d="M48.6,41.9H36.4c-0.6,5.5-0.8,10.9-0.4,16.2h12.6V41.9z"/>
	<path class="st0" d="M33.4,60.8h-5.7c1.7,3.4,4.1,6.3,7,8.6C34.2,66.6,33.7,63.8,33.4,60.8z"/>
	<path class="st0" d="M66.4,60.8c-0.3,2.9-0.8,5.8-1.4,8.8c3-2.3,5.5-5.3,7.2-8.8H66.4z"/>
	<path class="st0" d="M33.9,39.2c0.4-3.1,1-6.1,1.7-9.2c-3.3,2.4-6,5.5-7.8,9.2H33.9z"/>
	<path class="st0" d="M63.8,41.9H51.4v16.2h12.5C64.4,52.6,64.3,47.2,63.8,41.9z"/>
	<path class="st0" d="M63.6,60.8H51.4v13.8c3.7-0.2,7.3-1.2,10.4-2.9C62.6,68.1,63.2,64.5,63.6,60.8z"/>
	<path class="st0" d="M48.6,74.7V60.8H36.2c0.4,3.7,1,7.3,1.8,10.8C41.2,73.4,44.8,74.5,48.6,74.7z"/>
</g>
</svg>
